STARTFONT 2.1
COMMENT $XConsortium: lubI18.bdf,v 1.9 94/04/02 16:25:01 gildea Exp $
COMMENT  (c) Copyright Bigelow & Holmes 1986, 1985. Lucida is a registered
COMMENT  trademark of Bigelow & Holmes. See LEGAL NOTICE file for terms 
COMMENT  of the license. 
COMMENT  
COMMENT  Translation to ISO8859-2 by Cub Soft;  Petr.Kolar@vslib.cz
COMMENT  
FONT -B&H-LucidaBright-Medium-I-Normal--25-180-100-100-P-142-ISO8859-2
SIZE 18 100 100
FONTBOUNDINGBOX 42 28 -14 -5
STARTPROPERTIES 20
COMMENT Begin LogicalFontDescription
FONTNAME_REGISTRY ""
FOUNDRY "B&H"
FAMILY_NAME "LucidaBright"
WEIGHT_NAME "Medium"
SLANT "I"
SETWIDTH_NAME "Normal"
ADD_STYLE_NAME ""
PIXEL_SIZE 25
POINT_SIZE 180
RESOLUTION_X 100
RESOLUTION_Y 100
SPACING "P"
AVERAGE_WIDTH 142
CHARSET_REGISTRY "ISO8859"
CHARSET_ENCODING "2"
COMMENT END LogicalFontDescription
FONT_ASCENT 23
FONT_DESCENT 6
DEFAULT_CHAR 0
COPYRIGHT "Copyright Bigelow & Holmes 1986, 1985., Copyright 1996 Cub Soft"
FACE_NAME "Lucida Bright Italic"
ENDPROPERTIES
CHARS 191
STARTCHAR space
ENCODING 32
SWIDTH 333 0
DWIDTH 7 0
BBX 1 1 0 0
BITMAP
00
ENDCHAR
STARTCHAR exclam
ENCODING 33
SWIDTH 265 0
DWIDTH 7 0
BBX 6 18 2 0
BITMAP
1c
1c
18
18
18
18
10
30
30
30
20
20
20
00
00
00
e0
e0
ENDCHAR
STARTCHAR quotedbl
ENCODING 34
SWIDTH 377 0
DWIDTH 9 0
BBX 6 5 5 13
BITMAP
cc
cc
cc
44
44
ENDCHAR
STARTCHAR numbersign
ENCODING 35
SWIDTH 608 0
DWIDTH 15 0
BBX 15 18 2 0
BITMAP
00c6
0084
008c
0188
0118
0310
7ffe
0620
0420
0c60
0840
08c0
fffc
1180
2100
2300
4200
c600
ENDCHAR
STARTCHAR dollar
ENCODING 36
SWIDTH 608 0
DWIDTH 15 0
BBX 11 21 4 -2
BITMAP
0100
0fc0
1a60
3260
3260
3200
3400
3400
1c00
0e00
0700
0b80
0980
0980
0980
4980
c980
cb00
fc00
1000
1000
ENDCHAR
STARTCHAR percent
ENCODING 37
SWIDTH 759 0
DWIDTH 19 0
BBX 17 18 3 0
BITMAP
0e0180
190300
318200
218400
618800
611800
633000
326000
1cc000
019e00
013300
026300
046300
0c6300
186300
306200
606600
c03c00
ENDCHAR
STARTCHAR ampersand
ENCODING 38
SWIDTH 727 0
DWIDTH 18 0
BBX 18 18 2 0
BITMAP
00f800
019c00
030c00
030c00
030c00
031800
033000
03c000
1f8000
318fc0
61c300
e1c200
e0e600
e06400
e07800
603000
707800
1f9f00
ENDCHAR
STARTCHAR apostrophe
ENCODING 39
SWIDTH 265 0
DWIDTH 7 0
BBX 4 6 4 12
BITMAP
70
70
20
20
60
c0
ENDCHAR
STARTCHAR parenleft
ENCODING 40
SWIDTH 310 0
DWIDTH 8 0
BBX 8 22 2 -4
BITMAP
01
02
04
08
18
10
30
70
60
60
e0
e0
c0
c0
c0
c0
c0
40
40
40
20
10
ENDCHAR
STARTCHAR parenright
ENCODING 41
SWIDTH 310 0
DWIDTH 8 0
BBX 8 22 0 -4
BITMAP
0c
04
02
02
03
03
03
03
03
03
03
07
07
06
06
0c
0c
18
10
20
40
80
ENDCHAR
STARTCHAR asterisk
ENCODING 42
SWIDTH 458 0
DWIDTH 11 0
BBX 9 9 4 9
BITMAP
0c00
0c00
4800
eb80
3600
1800
2400
e600
4400
ENDCHAR
STARTCHAR plus
ENCODING 43
SWIDTH 608 0
DWIDTH 15 0
BBX 15 15 2 0
BITMAP
0080
0080
0080
0180
0180
0100
0100
fffe
0300
0300
0200
0200
0200
0200
0600
ENDCHAR
STARTCHAR comma
ENCODING 44
SWIDTH 265 0
DWIDTH 7 0
BBX 4 8 1 -5
BITMAP
70
70
70
20
20
60
60
c0
ENDCHAR
STARTCHAR minus
ENCODING 45
SWIDTH 608 0
DWIDTH 15 0
BBX 15 1 2 7
BITMAP
fffe
ENDCHAR
STARTCHAR period
ENCODING 46
SWIDTH 265 0
DWIDTH 7 0
BBX 4 3 2 0
BITMAP
70
f0
e0
ENDCHAR
STARTCHAR slash
ENCODING 47
SWIDTH 458 0
DWIDTH 11 0
BBX 16 22 0 -4
BITMAP
0003
0006
0004
000c
0018
0010
0030
0060
0040
00c0
0080
0100
0300
0200
0600
0c00
0800
1800
3000
2000
6000
c000
ENDCHAR
STARTCHAR zero
ENCODING 48
SWIDTH 608 0
DWIDTH 15 0
BBX 13 18 3 0
BITMAP
03e0
0e30
1c38
1818
3018
7018
6018
6018
e018
e018
e038
e030
e030
c060
e060
60c0
7180
1e00
ENDCHAR
STARTCHAR one
ENCODING 49
SWIDTH 608 0
DWIDTH 15 0
BBX 9 18 3 0
BITMAP
1f80
0380
0380
0300
0300
0300
0700
0700
0600
0600
0600
0e00
0e00
0c00
0c00
0c00
1c00
ff80
ENDCHAR
STARTCHAR two
ENCODING 50
SWIDTH 608 0
DWIDTH 15 0
BBX 14 18 2 0
BITMAP
03f0
0c38
081c
181c
001c
001c
0018
0030
0060
00c0
0300
0600
0800
1000
2000
6000
ffe0
ffe0
ENDCHAR
STARTCHAR three
ENCODING 51
SWIDTH 608 0
DWIDTH 15 0
BBX 13 18 3 0
BITMAP
0fc0
0870
1838
1838
0038
0030
0070
00c0
1f00
00c0
0060
0060
0070
0060
4060
c0c0
c180
fe00
ENDCHAR
STARTCHAR four
ENCODING 52
SWIDTH 608 0
DWIDTH 15 0
BBX 13 18 2 0
BITMAP
0018
0030
0070
00b0
0130
0230
0460
0860
1060
2060
40e0
fff8
fff8
00c0
00c0
01c0
01c0
07f0
ENDCHAR
STARTCHAR five
ENCODING 53
SWIDTH 608 0
DWIDTH 15 0
BBX 13 18 3 0
BITMAP
0ff8
0ff8
1000
1000
1000
1000
3f00
01c0
00e0
0060
0060
0060
0060
0060
40c0
c1c0
c380
fe00
ENDCHAR
STARTCHAR six
ENCODING 54
SWIDTH 608 0
DWIDTH 15 0
BBX 14 18 3 0
BITMAP
01f8
061c
0c08
1800
3800
3000
77c0
6860
f070
e030
e030
c030
c030
c070
e060
60c0
7180
1f00
ENDCHAR
STARTCHAR seven
ENCODING 55
SWIDTH 608 0
DWIDTH 15 0
BBX 14 18 4 0
BITMAP
3ffc
3ffc
0008
0010
0020
0040
0080
0100
0300
0600
0400
0c00
1800
3000
7000
6000
e000
e000
ENDCHAR
STARTCHAR eight
ENCODING 56
SWIDTH 608 0
DWIDTH 15 0
BBX 12 18 3 0
BITMAP
03c0
0c70
1830
1830
3830
3830
1c60
1fc0
0f80
13c0
61e0
60e0
c060
c060
c0e0
e0c0
6180
3f00
ENDCHAR
STARTCHAR nine
ENCODING 57
SWIDTH 608 0
DWIDTH 15 0
BBX 14 18 3 0
BITMAP
03e0
0c30
1838
1818
3018
3018
701c
7018
7038
3038
3878
1fb0
0070
0060
00e0
c0c0
c380
7e00
ENDCHAR
STARTCHAR colon
ENCODING 58
SWIDTH 265 0
DWIDTH 7 0
BBX 6 13 2 0
BITMAP
1c
3c
38
00
00
00
00
00
00
00
70
f0
e0
ENDCHAR
STARTCHAR semicolon
ENCODING 59
SWIDTH 265 0
DWIDTH 7 0
BBX 6 18 1 -5
BITMAP
1c
1c
1c
00
00
00
00
00
00
00
00
70
70
30
20
60
60
c0
ENDCHAR
STARTCHAR less
ENCODING 60
SWIDTH 608 0
DWIDTH 15 0
BBX 16 15 2 0
BITMAP
0001
0007
001c
0060
0380
0e00
3800
e000
3800
0c00
0700
01c0
0070
0018
0008
ENDCHAR
STARTCHAR equal
ENCODING 61
SWIDTH 608 0
DWIDTH 15 0
BBX 16 6 1 4
BITMAP
7fff
0000
0000
0000
0000
fffe
ENDCHAR
STARTCHAR greater
ENCODING 62
SWIDTH 608 0
DWIDTH 15 0
BBX 16 15 0 0
BITMAP
1000
1800
0e00
0380
00e0
0030
001c
0007
001c
0070
01c0
0600
1800
e000
8000
ENDCHAR
STARTCHAR question
ENCODING 63
SWIDTH 471 0
DWIDTH 12 0
BBX 10 18 4 0
BITMAP
3f00
6380
41c0
c1c0
01c0
0180
0300
0600
0c00
1800
3000
3000
6000
0000
0000
0000
e000
e000
ENDCHAR
STARTCHAR at
ENCODING 64
SWIDTH 861 0
DWIDTH 22 0
BBX 19 18 3 0
BITMAP
00fc00
030300
0c00c0
180040
207c20
208c20
410c20
820c20
860820
861820
862820
863840
865880
838f00
400000
200000
181000
07e000
ENDCHAR
STARTCHAR A
ENCODING 65
SWIDTH 747 0
DWIDTH 19 0
BBX 19 18 0 0
BITMAP
000c00
000c00
001c00
003e00
002e00
004e00
00ce00
008600
010600
010700
020700
07ff00
040300
080300
100380
100380
200380
f80fe0
ENDCHAR
STARTCHAR B
ENCODING 66
SWIDTH 606 0
DWIDTH 15 0
BBX 15 18 1 0
BITMAP
1ff8
071c
070e
060e
060e
060c
0e1c
0e38
0fe0
0c30
0c18
1c1c
1c1c
1c1c
181c
1838
3870
ffe0
ENDCHAR
STARTCHAR C
ENCODING 67
SWIDTH 714 0
DWIDTH 18 0
BBX 17 18 3 0
BITMAP
00ff80
038380
0e0180
1c0100
380000
300000
700000
700000
e00000
e00000
e00000
e00000
e00000
e00000
600000
700000
3c0c00
0ff000
ENDCHAR
STARTCHAR D
ENCODING 68
SWIDTH 770 0
DWIDTH 19 0
BBX 19 18 1 0
BITMAP
1ffe00
070780
0701c0
0700c0
0600e0
0600e0
0e00e0
0e00e0
0e00e0
0c00e0
0c00c0
1c01c0
1c01c0
1c0380
180700
180e00
383c00
fff000
ENDCHAR
STARTCHAR E
ENCODING 69
SWIDTH 569 0
DWIDTH 14 0
BBX 16 18 1 0
BITMAP
1fff
0703
0702
0700
0700
0600
0608
0e08
0ff8
0e18
0c10
0c00
1c00
1c00
1c00
180c
3808
fff8
ENDCHAR
STARTCHAR F
ENCODING 70
SWIDTH 551 0
DWIDTH 14 0
BBX 16 18 1 0
BITMAP
1fff
0703
0702
0700
0700
0600
0608
0e08
0ff8
0e18
0c10
0c00
1c00
1c00
1c00
1800
3c00
ff00
ENDCHAR
STARTCHAR G
ENCODING 71
SWIDTH 756 0
DWIDTH 19 0
BBX 17 18 3 0
BITMAP
00ff00
038380
0e0100
1c0100
380000
300000
700000
700000
e00000
e00000
e03f80
e00e00
e00c00
e00c00
601c00
701c00
381c00
0fe000
ENDCHAR
STARTCHAR H
ENCODING 72
SWIDTH 776 0
DWIDTH 19 0
BBX 22 18 0 0
BITMAP
1fe1fc
078070
070060
0700e0
0700e0
0600e0
0600c0
0e00c0
0fffc0
0e01c0
0c01c0
0c0180
1c0180
1c0380
1c0380
180380
380780
fe1fe0
ENDCHAR
STARTCHAR I
ENCODING 73
SWIDTH 325 0
DWIDTH 8 0
BBX 11 18 0 0
BITMAP
0fe0
0380
0300
0700
0700
0700
0600
0600
0e00
0e00
0c00
0c00
1c00
1c00
1c00
1800
3800
fe00
ENDCHAR
STARTCHAR J
ENCODING 74
SWIDTH 422 0
DWIDTH 11 0
BBX 14 22 0 -4
BITMAP
01fc
0070
0060
0060
00e0
00e0
00e0
00c0
00c0
01c0
01c0
01c0
0180
0180
0380
0380
0380
0300
4300
c600
c600
f800
ENDCHAR
STARTCHAR K
ENCODING 75
SWIDTH 698 0
DWIDTH 17 0
BBX 19 18 1 0
BITMAP
1fe3e0
078180
070300
070600
070800
061000
066000
0ec000
0f8000
0fc000
0ce000
0ce000
1c7000
1c3800
1c1c00
181c00
380e00
fe3f80
ENDCHAR
STARTCHAR L
ENCODING 76
SWIDTH 572 0
DWIDTH 14 0
BBX 14 18 1 0
BITMAP
1fe0
0780
0700
0700
0700
0600
0600
0e00
0e00
0e00
0c00
0c00
1c00
1c00
1c04
180c
380c
fff8
ENDCHAR
STARTCHAR M
ENCODING 77
SWIDTH 865 0
DWIDTH 22 0
BBX 24 18 1 0
BITMAP
0f001f
07803c
078038
078058
0580f8
05c0b8
05c130
0cc130
0cc230
08e470
08e470
086860
187860
187060
1060e0
1020e0
3000e0
fc03f8
ENDCHAR
STARTCHAR N
ENCODING 78
SWIDTH 762 0
DWIDTH 19 0
BBX 22 18 1 0
BITMAP
1f00fc
070030
078020
078020
05c060
04c040
04e040
0c7040
087040
083880
083880
081c80
180c80
100e80
100700
100700
300300
fc0100
ENDCHAR
STARTCHAR O
ENCODING 79
SWIDTH 783 0
DWIDTH 20 0
BBX 18 18 3 0
BITMAP
00fc00
030700
0e0380
1c0380
380180
3001c0
7001c0
6001c0
e00180
e00180
e00380
e00300
e00700
e00600
600c00
701800
387000
0fc000
ENDCHAR
STARTCHAR P
ENCODING 80
SWIDTH 579 0
DWIDTH 14 0
BBX 16 18 1 0
BITMAP
1ffc
070e
0707
0707
0707
0607
0606
0e0e
0e1c
0e38
0fe0
0c00
1c00
1c00
1c00
1800
3800
ff00
ENDCHAR
STARTCHAR Q
ENCODING 81
SWIDTH 788 0
DWIDTH 20 0
BBX 20 23 3 -5
BITMAP
00fc00
030600
0e0300
1c0380
380180
300180
7001c0
600180
e00180
e00380
e00380
e00380
e00700
e00700
600e00
701c00
387800
0fe000
004000
006000
001800
000ff0
0003e0
ENDCHAR
STARTCHAR R
ENCODING 82
SWIDTH 686 0
DWIDTH 17 0
BBX 17 18 0 0
BITMAP
0ffe00
030f00
030700
070300
070300
070300
060600
060c00
0e1800
0fe000
0e7000
0c3000
1c3800
1c1800
1c1c00
180c00
380e00
ff0780
ENDCHAR
STARTCHAR S
ENCODING 83
SWIDTH 549 0
DWIDTH 14 0
BBX 14 18 2 0
BITMAP
03f0
061c
0c0c
1c0c
1c08
1c00
1e00
0f00
0780
03e0
00e0
0070
0070
4070
c070
c060
e0c0
3f00
ENDCHAR
STARTCHAR T
ENCODING 84
SWIDTH 663 0
DWIDTH 17 0
BBX 16 18 4 0
BITMAP
7fff
c183
8182
0380
0380
0300
0300
0300
0700
0700
0600
0600
0600
0e00
0e00
0e00
1e00
7f80
ENDCHAR
STARTCHAR U
ENCODING 85
SWIDTH 727 0
DWIDTH 18 0
BBX 18 18 4 0
BITMAP
fe0fc0
380300
380200
300200
300200
700600
700400
700400
600400
600c00
e00800
e00800
e00800
c01800
e01000
603000
706000
1f8000
ENDCHAR
STARTCHAR V
ENCODING 86
SWIDTH 656 0
DWIDTH 16 0
BBX 18 18 3 0
BITMAP
fe07c0
700100
300300
380200
380400
380400
180800
181800
1c1000
1c2000
1c6000
0c4000
0c8000
0c8000
0f0000
0f0000
060000
040000
ENDCHAR
STARTCHAR W
ENCODING 87
SWIDTH 878 0
DWIDTH 22 0
BBX 23 18 3 0
BITMAP
fc183e
701808
303818
303810
305820
305820
309840
309840
311880
311880
3a1900
3a1900
3c1e00
3c1e00
381c00
381c00
301800
300800
ENDCHAR
STARTCHAR X
ENCODING 88
SWIDTH 624 0
DWIDTH 16 0
BBX 20 18 0 0
BITMAP
0fe1f0
0380c0
038080
01c100
01c200
00c400
00e800
007000
007000
007000
00b800
013800
021c00
041c00
080c00
100e00
300f00
f83f80
ENDCHAR
STARTCHAR Y
ENCODING 89
SWIDTH 663 0
DWIDTH 17 0
BBX 17 18 3 0
BITMAP
fe0f80
780200
380400
380800
1c1000
1c3000
0e6000
0e4000
068000
070000
070000
060000
060000
0e0000
0e0000
0e0000
1e0000
7f8000
ENDCHAR
STARTCHAR Z
ENCODING 90
SWIDTH 633 0
DWIDTH 16 0
BBX 16 18 1 0
BITMAP
0fff
0c06
080e
181c
0038
0070
0060
00e0
01c0
0380
0700
0600
0e00
1c00
3800
700c
6018
fff8
ENDCHAR
STARTCHAR bracketleft
ENCODING 91
SWIDTH 310 0
DWIDTH 8 0
BBX 9 22 1 -4
BITMAP
0f80
0c00
0c00
0c00
1c00
1800
1800
1800
1800
3000
3000
3000
3000
3000
6000
6000
6000
6000
6000
c000
c000
f800
ENDCHAR
STARTCHAR backslash
ENCODING 92
SWIDTH 458 0
DWIDTH 11 0
BBX 7 22 4 -4
BITMAP
c0
c0
40
40
60
60
20
20
30
30
10
10
18
18
08
08
0c
0c
04
04
06
06
ENDCHAR
STARTCHAR bracketright
ENCODING 93
SWIDTH 310 0
DWIDTH 8 0
BBX 9 22 1 -4
BITMAP
0f80
0180
0180
0300
0300
0300
0300
0700
0600
0600
0600
0600
0e00
0c00
0c00
0c00
0c00
1c00
1800
1800
1800
f800
ENDCHAR
STARTCHAR asciicircum
ENCODING 94
SWIDTH 608 0
DWIDTH 15 0
BBX 15 15 1 3
BITMAP
0020
0060
0060
00e0
01b0
0110
0210
0610
0408
0808
1808
3004
2004
6004
c002
ENDCHAR
STARTCHAR underscore
ENCODING 95
SWIDTH 500 0
DWIDTH 12 0
BBX 10 2 1 -2
BITMAP
ffc0
ffc0
ENDCHAR
STARTCHAR grave
ENCODING 96
SWIDTH 560 0
DWIDTH 14 0
BBX 4 4 8 14
BITMAP
e0
60
20
10
ENDCHAR
STARTCHAR a
ENCODING 97
SWIDTH 608 0
DWIDTH 15 0
BBX 13 13 2 0
BITMAP
03f8
0438
1830
1030
3030
6030
6070
e0e0
e160
e360
e660
fce0
70f8
ENDCHAR
STARTCHAR b
ENCODING 98
SWIDTH 596 0
DWIDTH 15 0
BBX 13 18 2 0
BITMAP
7c00
1c00
1800
1800
1800
1870
39f8
3338
3638
3438
3838
7030
7030
6060
6060
60c0
e100
fe00
ENDCHAR
STARTCHAR c
ENCODING 99
SWIDTH 487 0
DWIDTH 12 0
BBX 11 13 2 0
BITMAP
07e0
0860
1020
3060
6000
6000
e000
e000
e000
e000
e000
6080
3f00
ENDCHAR
STARTCHAR d
ENCODING 100
SWIDTH 608 0
DWIDTH 15 0
BBX 15 18 2 0
BITMAP
003e
000e
000c
000c
001c
03fc
041c
0818
1018
3038
6038
6070
e070
e0f0
e170
e670
fc70
787c
ENDCHAR
STARTCHAR e
ENCODING 101
SWIDTH 518 0
DWIDTH 13 0
BBX 11 13 2 0
BITMAP
07c0
08e0
10e0
30e0
60c0
61c0
e300
fc00
e000
e000
e060
71c0
3f00
ENDCHAR
STARTCHAR f
ENCODING 102
SWIDTH 380 0
DWIDTH 9 0
BBX 12 24 2 -5
BITMAP
01f0
0230
0630
0420
0c00
0c00
3fc0
1c00
1800
1800
1800
3800
3800
3000
3000
3000
7000
7000
7000
6000
6000
e000
e000
e000
ENDCHAR
STARTCHAR g
ENCODING 103
SWIDTH 602 0
DWIDTH 15 0
BBX 14 18 1 -5
BITMAP
01fc
021c
0c1c
1818
1818
3038
3038
7078
70b0
71b0
7330
7e70
3860
0060
8060
c0c0
7080
7f00
ENDCHAR
STARTCHAR h
ENCODING 104
SWIDTH 631 0
DWIDTH 16 0
BBX 13 18 3 0
BITMAP
7c00
1c00
1c00
1800
1800
1870
39f8
3b38
3638
3430
3830
7030
7070
6070
6060
6060
e060
e0f8
ENDCHAR
STARTCHAR i
ENCODING 105
SWIDTH 289 0
DWIDTH 7 0
BBX 6 18 3 0
BITMAP
1c
1c
00
00
00
f8
38
38
30
30
30
70
60
60
60
60
e0
f8
ENDCHAR
STARTCHAR j
ENCODING 106
SWIDTH 343 0
DWIDTH 9 0
BBX 12 23 -1 -5
BITMAP
0070
0070
0000
0000
0000
03e0
00e0
00e0
00c0
00c0
00c0
01c0
01c0
0180
0180
0180
0380
0380
0300
4300
c600
c400
f800
ENDCHAR
STARTCHAR k
ENCODING 107
SWIDTH 560 0
DWIDTH 14 0
BBX 13 18 2 0
BITMAP
7c00
1c00
1c00
1c00
1800
1838
1830
3860
38c0
3100
3600
7e00
7700
6700
6380
61c0
e1e0
e0f8
ENDCHAR
STARTCHAR l
ENCODING 108
SWIDTH 289 0
DWIDTH 7 0
BBX 6 18 2 0
BITMAP
7c
1c
18
18
18
18
38
30
30
30
30
70
60
60
60
60
e0
f8
ENDCHAR
STARTCHAR m
ENCODING 109
SWIDTH 944 0
DWIDTH 24 0
BBX 21 13 3 0
BITMAP
f87070
39f1f8
3b3b38
363638
3c3c30
383830
707830
707070
607070
606060
606060
e0e060
e0e0f8
ENDCHAR
STARTCHAR n
ENCODING 110
SWIDTH 631 0
DWIDTH 16 0
BBX 13 13 3 0
BITMAP
f870
39f8
3338
3638
3430
3830
7030
7070
6070
6060
6060
e060
e0f8
ENDCHAR
STARTCHAR o
ENCODING 111
SWIDTH 560 0
DWIDTH 14 0
BBX 12 13 2 0
BITMAP
07c0
0c60
1870
3030
7030
6030
e070
e070
e060
e0e0
e0c0
f380
7e00
ENDCHAR
STARTCHAR p
ENCODING 112
SWIDTH 608 0
DWIDTH 15 0
BBX 14 18 2 -5
BITMAP
7c38
1cfc
199c
1b1c
1a1c
3c1c
3818
3018
3030
3020
7060
7080
7f00
6000
6000
e000
e000
e000
ENDCHAR
STARTCHAR q
ENCODING 113
SWIDTH 599 0
DWIDTH 15 0
BBX 13 18 2 -5
BITMAP
03f8
0438
1838
1030
3030
6030
6070
e0f0
e160
e360
e660
fce0
70e0
00c0
00c0
00c0
01c0
01c0
ENDCHAR
STARTCHAR r
ENCODING 114
SWIDTH 470 0
DWIDTH 12 0
BBX 11 13 3 0
BITMAP
f860
39e0
33c0
3600
3c00
3800
7000
7000
6000
6000
6000
e000
e000
ENDCHAR
STARTCHAR s
ENCODING 115
SWIDTH 440 0
DWIDTH 11 0
BBX 10 13 1 0
BITMAP
07c0
1c40
1840
1840
1c00
1e00
0f00
0780
0380
c180
c180
c300
7e00
ENDCHAR
STARTCHAR t
ENCODING 116
SWIDTH 355 0
DWIDTH 9 0
BBX 8 17 3 0
BITMAP
08
18
38
38
ff
30
30
70
70
60
60
60
e0
e0
e0
e0
78
ENDCHAR
STARTCHAR u
ENCODING 117
SWIDTH 630 0
DWIDTH 16 0
BBX 13 13 3 0
BITMAP
f8f8
3038
3030
3030
7030
7070
6070
60e0
6160
e360
e660
fce0
70f8
ENDCHAR
STARTCHAR v
ENCODING 118
SWIDTH 558 0
DWIDTH 14 0
BBX 14 13 1 0
BITMAP
f81c
380c
180c
1c0c
0c18
0c10
0c20
0e40
0ec0
0f80
0700
0600
0400
ENDCHAR
STARTCHAR w
ENCODING 119
SWIDTH 805 0
DWIDTH 20 0
BBX 20 13 2 0
BITMAP
f02070
383070
383060
187060
187840
1cb8c0
1c9980
0d1900
0f1a00
0e1e00
0c1c00
0c1800
081800
ENDCHAR
STARTCHAR x
ENCODING 120
SWIDTH 510 0
DWIDTH 13 0
BBX 13 13 1 0
BITMAP
7838
1c18
0c30
0e60
06c0
0700
0700
0f80
1180
21c0
60c0
c0e0
e078
ENDCHAR
STARTCHAR y
ENCODING 121
SWIDTH 558 0
DWIDTH 14 0
BBX 16 18 0 -5
BITMAP
7c0f
1c07
0e06
0606
060c
0608
0710
0730
0320
0340
0380
0300
0200
0600
0c00
1800
3000
f000
ENDCHAR
STARTCHAR z
ENCODING 122
SWIDTH 536 0
DWIDTH 13 0
BBX 13 13 1 0
BITMAP
1ff8
1030
3060
00c0
01c0
0380
0700
0e00
1c00
3800
3030
6020
ffe0
ENDCHAR
STARTCHAR braceleft
ENCODING 123
SWIDTH 337 0
DWIDTH 8 0
BBX 9 22 2 -4
BITMAP
0380
0e00
0c00
0c00
1c00
1c00
1c00
1800
1800
1800
1000
e000
2000
3000
3000
7000
6000
e000
c000
c000
c000
3000
ENDCHAR
STARTCHAR bar
ENCODING 124
SWIDTH 241 0
DWIDTH 6 0
BBX 6 22 2 -4
BITMAP
0c
0c
0c
08
18
18
18
18
10
30
30
30
30
20
60
60
60
60
40
c0
c0
c0
ENDCHAR
STARTCHAR braceright
ENCODING 125
SWIDTH 337 0
DWIDTH 8 0
BBX 9 22 2 -4
BITMAP
0e00
0300
0100
0300
0300
0700
0600
0600
0600
0600
0380
0400
0800
1800
1800
1800
1800
1800
1800
1800
3000
e000
ENDCHAR
STARTCHAR asciitilde
ENCODING 126
SWIDTH 608 0
DWIDTH 15 0
BBX 15 6 2 4
BITMAP
1c00
3e02
4704
83c4
80fc
8078
ENDCHAR
STARTCHAR nobreakspace
ENCODING 160
SWIDTH 333 0
DWIDTH 7 0
BBX 1 1 0 0
BITMAP
00
ENDCHAR
STARTCHAR Aogonek
ENCODING 161
SWIDTH 747 0
DWIDTH 19 0
BBX 19 22 0 -4
BITMAP
000c00
000c00
001c00
003e00
002e00
004e00
00ce00
008600
010600
010700
020700
07ff00
040300
080300
100380
100380
200380
f80fe0
007000
00c000
00c000
007000
ENDCHAR
STARTCHAR breve
ENCODING 162
SWIDTH 560 0
DWIDTH 14 0
BBX 8 4 7 14
BITMAP
81
82
fc
78
ENDCHAR
STARTCHAR Lstroke
ENCODING 163
SWIDTH 572 0
DWIDTH 14 0
BBX 14 18 0 0
BITMAP
0fe0
0380
0300
0700
0700
0700
0640
0fc0
0f00
1e00
6e00
4c00
1c00
1c00
1c00
1804
380c
fff8
ENDCHAR
STARTCHAR currency
ENCODING 164
SWIDTH 608 0
DWIDTH 15 0
BBX 17 16 1 1
BITMAP
100080
100100
09e200
0a1400
0c0800
080c00
180400
100400
100c00
100800
100800
081000
1c3000
37c800
400c00
800400
ENDCHAR
STARTCHAR Lcaron
ENCODING 165
SWIDTH 640 0
DWIDTH 16 0
BBX 16 20 1 0
BITMAP
0007
0007
1fe2
0782
0706
070c
0700
0600
0600
0e00
0e00
0e00
0c00
0c00
1c00
1c00
1c04
180c
380c
fff8
ENDCHAR
STARTCHAR Sacute
ENCODING 166
SWIDTH 549 0
DWIDTH 14 0
BBX 15 23 2 0
BITMAP
000e
0018
0030
0060
0000
03f0
061c
0c0c
1c0c
1c08
1c00
1e00
0f00
0780
03e0
00e0
0070
0070
4070
c070
c060
e0c0
3f00
ENDCHAR
STARTCHAR section
ENCODING 167
SWIDTH 608 0
DWIDTH 15 0
BBX 14 23 2 -5
BITMAP
01f8
060c
0c04
0c04
0c00
1c00
0e00
0780
0be0
10f0
3038
3018
3810
1e30
0fa0
03c0
00e0
0070
0030
c070
c060
e1c0
7f00
ENDCHAR
STARTCHAR diaeresis
ENCODING 168
SWIDTH 560 0
DWIDTH 14 0
BBX 7 2 7 16
BITMAP
c6
c6
ENDCHAR
STARTCHAR Scaron
ENCODING 169
SWIDTH 549 0
DWIDTH 14 0
BBX 14 23 2 0
BITMAP
020c
0118
01f0
00e0
0000
03f0
061c
0c0c
1c0c
1c08
1c00
1e00
0f00
0780
03e0
00e0
0070
0070
4070
c070
c060
e0c0
3f00
ENDCHAR
STARTCHAR Scedilla
ENCODING 170
SWIDTH 549 0
DWIDTH 14 0
BBX 14 23 2 -5
BITMAP
03f0
061c
0c0c
1c0c
1c08
1c00
1e00
0f00
0780
03e0
00e0
0070
0070
4070
c070
c060
e0c0
3f00
0100
0300
0180
0180
0700
ENDCHAR
STARTCHAR Tcaron
ENCODING 171
SWIDTH 663 0
DWIDTH 17 0
BBX 16 23 4 0
BITMAP
0418
0230
03e0
01c0
0000
7fff
c183
8182
0380
0380
0300
0300
0300
0700
0700
0600
0600
0600
0e00
0e00
0e00
1e00
7f80
ENDCHAR
STARTCHAR Zacute
ENCODING 172
SWIDTH 633 0
DWIDTH 16 0
BBX 16 23 1 0
BITMAP
0007
000c
0018
0030
0000
0fff
0c06
080e
181c
0038
0070
0060
00e0
01c0
0380
0700
0600
0e00
1c00
3800
700c
6018
fff8
ENDCHAR
STARTCHAR hyphen
ENCODING 173
SWIDTH 313 0
DWIDTH 8 0
BBX 6 2 2 7
BITMAP
fc
fc
ENDCHAR
STARTCHAR Zcaron
ENCODING 174
SWIDTH 633 0
DWIDTH 16 0
BBX 16 23 1 0
BITMAP
0106
008c
00f8
0070
0000
0fff
0c06
080e
181c
0038
0070
0060
00e0
01c0
0380
0700
0600
0e00
1c00
3800
700c
6018
fff8
ENDCHAR
STARTCHAR Zabovedot
ENCODING 175
SWIDTH 633 0
DWIDTH 16 0
BBX 16 21 1 0
BITMAP
0070
0070
0000
0fff
0c06
080e
181c
0038
0070
0060
00e0
01c0
0380
0700
0600
0e00
1c00
3800
700c
6018
fff8
ENDCHAR
STARTCHAR degree
ENCODING 176
SWIDTH 277 0
DWIDTH 7 0
BBX 4 4 5 14
BITMAP
70
90
90
70
ENDCHAR
STARTCHAR aogonek
ENCODING 177
SWIDTH 608 0
DWIDTH 15 0
BBX 13 17 2 -4
BITMAP
03f8
0438
1830
1030
3030
6030
6070
e0e0
e160
e360
e660
fce0
70f8
0380
0600
0600
0380
ENDCHAR
STARTCHAR ogonek
ENCODING 178
SWIDTH 560 0
DWIDTH 14 0
BBX 4 4 4 -5
BITMAP
70
c0
c0
70
ENDCHAR
STARTCHAR lstroke
ENCODING 179
SWIDTH 289 0
DWIDTH 7 0
BBX 9 18 1 0
BITMAP
3e00
0e00
0c00
0c00
0c00
0c00
1c00
1880
1f00
f800
1800
3800
3000
3000
3000
7000
7000
7c00
ENDCHAR
STARTCHAR acute
ENCODING 180
SWIDTH 560 0
DWIDTH 14 0
BBX 6 4 9 14
BITMAP
1c
30
60
c0
ENDCHAR
STARTCHAR lcaron
ENCODING 181
SWIDTH 480 0
DWIDTH 12 0
BBX 11 20 2 0
BITMAP
00e0
00e0
7c40
1c40
18c0
1980
1800
1800
3800
3000
3000
3000
3000
7000
6000
6000
6000
6000
e000
f800
ENDCHAR
STARTCHAR sacute
ENCODING 182
SWIDTH 440 0
DWIDTH 11 0
BBX 12 18 1 0
BITMAP
0070
00c0
0180
0300
0000
07c0
1c40
1840
1840
1c00
1e00
0f00
0780
0380
c180
c180
c300
7e00
ENDCHAR
STARTCHAR caron
ENCODING 183
SWIDTH 560 0
DWIDTH 14 0
BBX 8 4 7 14
BITMAP
83
46
7c
38
ENDCHAR
STARTCHAR cedilla
ENCODING 184
SWIDTH 560 0
DWIDTH 14 0
BBX 4 5 4 -5
BITMAP
20
60
30
30
e0
ENDCHAR
STARTCHAR scaron
ENCODING 185
SWIDTH 440 0
DWIDTH 11 0
BBX 11 18 1 0
BITMAP
1060
08c0
0f80
0700
0000
07c0
1c40
1840
1840
1c00
1e00
0f00
0780
0380
c180
c180
c300
7e00
ENDCHAR
STARTCHAR scedilla
ENCODING 186
SWIDTH 440 0
DWIDTH 11 0
BBX 10 18 1 -5
BITMAP
07c0
1c40
1840
1840
1c00
1e00
0f00
0780
0380
c180
c180
c300
7e00
0400
0c00
0600
0600
1c00
ENDCHAR
STARTCHAR tcaron
ENCODING 187
SWIDTH 440 0
DWIDTH 11 0
BBX 10 20 3 0
BITMAP
01c0
01c0
0080
0880
1980
3b00
3800
ff00
3000
3000
7000
7000
6000
6000
6000
e000
e000
e000
e000
7800
ENDCHAR
STARTCHAR zacute
ENCODING 188
SWIDTH 536 0
DWIDTH 13 0
BBX 13 18 1 0
BITMAP
0038
0060
00c0
0180
0000
1ff8
1030
3060
00c0
01c0
0380
0700
0e00
1c00
3800
3030
6020
ffe0
ENDCHAR
STARTCHAR doubleacute
ENCODING 189
SWIDTH 560 0
DWIDTH 14 0
BBX 8 4 8 14
BITMAP
1b
34
48
90
ENDCHAR
STARTCHAR zcaron
ENCODING 190
SWIDTH 536 0
DWIDTH 13 0
BBX 13 18 1 0
BITMAP
0830
0460
07c0
0380
0000
1ff8
1030
3060
00c0
01c0
0380
0700
0e00
1c00
3800
3030
6020
ffe0
ENDCHAR
STARTCHAR zabovedot
ENCODING 191
SWIDTH 536 0
DWIDTH 13 0
BBX 13 16 1 0
BITMAP
0380
0380
0000
1ff8
1030
3060
00c0
01c0
0380
0700
0e00
1c00
3800
3030
6020
ffe0
ENDCHAR
STARTCHAR Racute
ENCODING 192
SWIDTH 686 0
DWIDTH 17 0
BBX 17 23 0 0
BITMAP
000700
000c00
001800
003000
000000
0ffe00
030f00
030700
070300
070300
070300
060600
060c00
0e1800
0fe000
0e7000
0c3000
1c3800
1c1800
1c1c00
180c00
380e00
ff0780
ENDCHAR
STARTCHAR Aacute
ENCODING 193
SWIDTH 747 0
DWIDTH 19 0
BBX 19 23 0 0
BITMAP
0001c0
000300
000600
000c00
000000
000c00
000c00
001c00
003e00
002e00
004e00
00ce00
008600
010600
010700
020700
07ff00
040300
080300
100380
100380
200380
f80fe0
ENDCHAR
STARTCHAR Acircumflex
ENCODING 194
SWIDTH 747 0
DWIDTH 19 0
BBX 19 23 0 0
BITMAP
000700
000f80
001880
003040
000000
000c00
000c00
001c00
003e00
002e00
004e00
00ce00
008600
010600
010700
020700
07ff00
040300
080300
100380
100380
200380
f80fe0
ENDCHAR
STARTCHAR Abreve
ENCODING 195
SWIDTH 747 0
DWIDTH 19 0
BBX 19 23 0 0
BITMAP
002040
002080
003f00
001e00
000000
000c00
000c00
001c00
003e00
002e00
004e00
00ce00
008600
010600
010700
020700
07ff00
040300
080300
100380
100380
200380
f80fe0
ENDCHAR
STARTCHAR Adiaeresis
ENCODING 196
SWIDTH 747 0
DWIDTH 19 0
BBX 19 21 0 0
BITMAP
003180
003180
000000
000c00
000c00
001c00
003e00
002e00
004e00
00ce00
008600
010600
010700
020700
07ff00
040300
080300
100380
100380
200380
f80fe0
ENDCHAR
STARTCHAR Lacute
ENCODING 197
SWIDTH 572 0
DWIDTH 14 0
BBX 14 23 1 0
BITMAP
0038
0060
00c0
0180
0000
1fe0
0780
0700
0700
0700
0600
0600
0e00
0e00
0e00
0c00
0c00
1c00
1c00
1c04
180c
380c
fff8
ENDCHAR
STARTCHAR Cacute
ENCODING 198
SWIDTH 714 0
DWIDTH 18 0
BBX 17 23 3 0
BITMAP
000700
000c00
001800
003000
000000
00ff80
038380
0e0180
1c0100
380000
300000
700000
700000
e00000
e00000
e00000
e00000
e00000
e00000
600000
700000
3c0c00
0ff000
ENDCHAR
STARTCHAR Ccedilla
ENCODING 199
SWIDTH 714 0
DWIDTH 18 0
BBX 17 23 3 -5
BITMAP
00ff80
038380
0e0180
1c0100
380000
300000
700000
700000
e00000
e00000
e00000
e00000
e00000
e00000
600000
700000
3c0c00
0ff000
020000
060000
030000
030000
0e0000
ENDCHAR
STARTCHAR Ccaron
ENCODING 200
SWIDTH 714 0
DWIDTH 18 0
BBX 17 23 3 0
BITMAP
010600
008c00
00f800
007000
000000
00ff80
038380
0e0180
1c0100
380000
300000
700000
700000
e00000
e00000
e00000
e00000
e00000
e00000
600000
700000
3c0c00
0ff000
ENDCHAR
STARTCHAR Eacute
ENCODING 201
SWIDTH 569 0
DWIDTH 14 0
BBX 16 23 1 0
BITMAP
000e
0018
0030
0060
0000
1fff
0703
0702
0700
0700
0600
0608
0e08
0ff8
0e18
0c10
0c00
1c00
1c00
1c00
180c
3808
fff8
ENDCHAR
STARTCHAR Eogonek
ENCODING 202
SWIDTH 569 0
DWIDTH 14 0
BBX 16 22 1 -4
BITMAP
1fff
0703
0702
0700
0700
0600
0608
0e08
0ff8
0e18
0c10
0c00
1c00
1c00
1c00
180c
3808
fff8
01c0
0300
0300
01c0
ENDCHAR
STARTCHAR Ediaeresis
ENCODING 203
SWIDTH 569 0
DWIDTH 14 0
BBX 16 21 1 0
BITMAP
018c
018c
0000
1fff
0703
0702
0700
0700
0600
0608
0e08
0ff8
0e18
0c10
0c00
1c00
1c00
1c00
180c
3808
fff8
ENDCHAR
STARTCHAR Ecaron
ENCODING 204
SWIDTH 569 0
DWIDTH 14 0
BBX 16 23 1 0
BITMAP
020c
0118
01f0
00e0
0000
1fff
0703
0702
0700
0700
0600
0608
0e08
0ff8
0e18
0c10
0c00
1c00
1c00
1c00
180c
3808
fff8
ENDCHAR
STARTCHAR Iacute
ENCODING 205
SWIDTH 325 0
DWIDTH 8 0
BBX 12 23 0 0
BITMAP
0070
00c0
0180
0300
0000
0fe0
0380
0300
0700
0700
0700
0600
0600
0e00
0e00
0c00
0c00
1c00
1c00
1c00
1800
3800
fe00
ENDCHAR
STARTCHAR Icircumflex
ENCODING 206
SWIDTH 325 0
DWIDTH 8 0
BBX 12 23 0 0
BITMAP
01c0
03e0
0620
0c10
0000
0fe0
0380
0300
0700
0700
0700
0600
0600
0e00
0e00
0c00
0c00
1c00
1c00
1c00
1800
3800
fe00
ENDCHAR
STARTCHAR Dcaron
ENCODING 207
SWIDTH 770 0
DWIDTH 19 0
BBX 19 23 1 0
BITMAP
010600
008c00
00f800
007000
000000
1ffe00
070780
0701c0
0700c0
0600e0
0600e0
0e00e0
0e00e0
0e00e0
0c00e0
0c00c0
1c01c0
1c01c0
1c0380
180700
180e00
383c00
fff000
ENDCHAR
STARTCHAR Dstroke
ENCODING 208
SWIDTH 770 0
DWIDTH 19 0
BBX 19 18 1 0
BITMAP
1ffe00
070780
0701c0
0700c0
0600e0
0600e0
0e00e0
0e00e0
7fe0e0
0c00e0
0c00c0
1c01c0
1c01c0
1c0380
180700
180e00
383c00
fff000
ENDCHAR
STARTCHAR Nacute
ENCODING 209
SWIDTH 762 0
DWIDTH 19 0
BBX 22 23 1 0
BITMAP
0001c0
000300
000600
000c00
000000
1f00fc
070030
078020
078020
05c060
04c040
04e040
0c7040
087040
083880
083880
081c80
180c80
100e80
100700
100700
300300
fc0100
ENDCHAR
STARTCHAR Ncaron
ENCODING 210
SWIDTH 762 0
DWIDTH 19 0
BBX 22 23 1 0
BITMAP
004180
002300
003e00
001c00
000000
1f00fc
070030
078020
078020
05c060
04c040
04e040
0c7040
087040
083880
083880
081c80
180c80
100e80
100700
100700
300300
fc0100
ENDCHAR
STARTCHAR Oacute
ENCODING 211
SWIDTH 783 0
DWIDTH 20 0
BBX 18 23 3 0
BITMAP
000e00
001800
003000
006000
000000
00fc00
030700
0e0380
1c0380
380180
3001c0
7001c0
6001c0
e00180
e00180
e00380
e00300
e00700
e00600
600c00
701800
387000
0fc000
ENDCHAR
STARTCHAR Ocircumflex
ENCODING 212
SWIDTH 783 0
DWIDTH 20 0
BBX 18 23 3 0
BITMAP
003800
007c00
00c400
018200
000000
00fc00
030700
0e0380
1c0380
380180
3001c0
7001c0
6001c0
e00180
e00180
e00380
e00300
e00700
e00600
600c00
701800
387000
0fc000
ENDCHAR
STARTCHAR Odoubleacute
ENCODING 213
SWIDTH 783 0
DWIDTH 20 0
BBX 18 23 3 0
BITMAP
000d80
001a00
002400
004800
000000
00fc00
030700
0e0380
1c0380
380180
3001c0
7001c0
6001c0
e00180
e00180
e00380
e00300
e00700
e00600
600c00
701800
387000
0fc000
ENDCHAR
STARTCHAR Odiaeresis
ENCODING 214
SWIDTH 783 0
DWIDTH 20 0
BBX 18 21 3 0
BITMAP
00c600
00c600
000000
00fc00
030700
0e0380
1c0380
380180
3001c0
7001c0
6001c0
e00180
e00180
e00380
e00300
e00700
e00600
600c00
701800
387000
0fc000
ENDCHAR
STARTCHAR multiply
ENCODING 215
SWIDTH 608 0
DWIDTH 15 0
BBX 17 15 1 0
BITMAP
100080
100100
080600
040c00
021800
033000
016000
008000
034000
066000
0c2000
181000
300800
600400
800400
ENDCHAR
STARTCHAR Rcaron
ENCODING 216
SWIDTH 686 0
DWIDTH 17 0
BBX 17 23 0 0
BITMAP
010600
008c00
00f800
007000
000000
0ffe00
030f00
030700
070300
070300
070300
060600
060c00
0e1800
0fe000
0e7000
0c3000
1c3800
1c1800
1c1c00
180c00
380e00
ff0780
ENDCHAR
STARTCHAR Uring
ENCODING 217
SWIDTH 727 0
DWIDTH 18 0
BBX 18 23 4 0
BITMAP
006000
009000
009000
006000
000000
fe0fc0
380300
380200
300200
300200
700600
700400
700400
600400
600c00
e00800
e00800
e00800
c01800
e01000
603000
706000
1f8000
ENDCHAR
STARTCHAR Uacute
ENCODING 218
SWIDTH 727 0
DWIDTH 18 0
BBX 18 23 4 0
BITMAP
001c00
003000
006000
00c000
000000
fe0fc0
380300
380200
300200
300200
700600
700400
700400
600400
600c00
e00800
e00800
e00800
c01800
e01000
603000
706000
1f8000
ENDCHAR
STARTCHAR Udoubleacute
ENCODING 219
SWIDTH 727 0
DWIDTH 18 0
BBX 18 23 4 0
BITMAP
001b00
003400
004800
009000
000000
fe0fc0
380300
380200
300200
300200
700600
700400
700400
600400
600c00
e00800
e00800
e00800
c01800
e01000
603000
706000
1f8000
ENDCHAR
STARTCHAR Udiaeresis
ENCODING 220
SWIDTH 727 0
DWIDTH 18 0
BBX 18 21 4 0
BITMAP
031800
031800
000000
fe0fc0
380300
380200
300200
300200
700600
700400
700400
600400
600c00
e00800
e00800
e00800
c01800
e01000
603000
706000
1f8000
ENDCHAR
STARTCHAR Yacute
ENCODING 221
SWIDTH 663 0
DWIDTH 17 0
BBX 17 23 3 0
BITMAP
003800
006000
00c000
018000
000000
fe0f80
780200
380400
380800
1c1000
1c3000
0e6000
0e4000
068000
070000
070000
060000
060000
0e0000
0e0000
0e0000
1e0000
7f8000
ENDCHAR
STARTCHAR Tcedilla
ENCODING 222
SWIDTH 663 0
DWIDTH 17 0
BBX 16 23 4 -5
BITMAP
7fff
c183
8182
0380
0380
0300
0300
0300
0700
0700
0600
0600
0600
0e00
0e00
0e00
1e00
7f80
0080
0180
00c0
00c0
0380
ENDCHAR
STARTCHAR ssharp
ENCODING 223
SWIDTH 603 0
DWIDTH 15 0
BBX 13 24 2 -5
BITMAP
01f0
0738
0618
0e18
0c30
0c20
0c40
1d80
1d80
1980
19c0
18f0
3878
3838
3018
3218
3218
7230
73e0
6000
6000
6000
e000
e000
ENDCHAR
STARTCHAR racute
ENCODING 224
SWIDTH 470 0
DWIDTH 12 0
BBX 11 18 3 0
BITMAP
00e0
0180
0300
0600
0000
f860
39e0
33c0
3600
3c00
3800
7000
7000
6000
6000
6000
e000
e000
ENDCHAR
STARTCHAR aacute
ENCODING 225
SWIDTH 608 0
DWIDTH 15 0
BBX 13 18 2 0
BITMAP
0038
0060
00c0
0180
0000
03f8
0438
1830
1030
3030
6030
6070
e0e0
e160
e360
e660
fce0
70f8
ENDCHAR
STARTCHAR acircumflex
ENCODING 226
SWIDTH 608 0
DWIDTH 15 0
BBX 13 18 2 0
BITMAP
00e0
01f0
0310
0608
0000
03f8
0438
1830
1030
3030
6030
6070
e0e0
e160
e360
e660
fce0
70f8
ENDCHAR
STARTCHAR abreve
ENCODING 227
SWIDTH 608 0
DWIDTH 15 0
BBX 14 18 2 0
BITMAP
0204
0208
03f0
01e0
0000
03f8
0438
1830
1030
3030
6030
6070
e0e0
e160
e360
e660
fce0
70f8
ENDCHAR
STARTCHAR adiaeresis
ENCODING 228
SWIDTH 608 0
DWIDTH 15 0
BBX 13 16 2 0
BITMAP
0318
0318
0000
03f8
0438
1830
1030
3030
6030
6070
e0e0
e160
e360
e660
fce0
70f8
ENDCHAR
STARTCHAR lacute
ENCODING 229
SWIDTH 289 0
DWIDTH 7 0
BBX 9 23 2 0
BITMAP
0380
0600
0c00
1800
0000
7c00
1c00
1800
1800
1800
1800
3800
3000
3000
3000
3000
7000
6000
6000
6000
6000
e000
f800
ENDCHAR
STARTCHAR cacute
ENCODING 230
SWIDTH 487 0
DWIDTH 12 0
BBX 13 18 2 0
BITMAP
0038
0060
00c0
0180
0000
07e0
0860
1020
3060
6000
6000
e000
e000
e000
e000
e000
6080
3f00
ENDCHAR
STARTCHAR ccedilla
ENCODING 231
SWIDTH 487 0
DWIDTH 12 0
BBX 11 18 2 -5
BITMAP
07e0
0860
1020
3060
6000
6000
e000
e000
e000
e000
e000
6080
3f00
1000
3000
1800
1800
7000
ENDCHAR
STARTCHAR ccaron
ENCODING 232
SWIDTH 487 0
DWIDTH 12 0
BBX 12 18 2 0
BITMAP
0830
0460
07c0
0380
0000
07e0
0860
1020
3060
6000
6000
e000
e000
e000
e000
e000
6080
3f00
ENDCHAR
STARTCHAR eacute
ENCODING 233
SWIDTH 518 0
DWIDTH 13 0
BBX 12 18 2 0
BITMAP
0070
00c0
0180
0300
0000
07c0
08e0
10e0
30e0
60c0
61c0
e300
fc00
e000
e000
e060
71c0
3f00
ENDCHAR
STARTCHAR eogonek
ENCODING 234
SWIDTH 518 0
DWIDTH 13 0
BBX 11 17 2 -4
BITMAP
07c0
08e0
10e0
30e0
60c0
61c0
e300
fc00
e000
e000
e060
71c0
3f00
0700
0c00
0c00
0700
ENDCHAR
STARTCHAR ediaeresis
ENCODING 235
SWIDTH 518 0
DWIDTH 13 0
BBX 12 16 2 0
BITMAP
0630
0630
0000
07c0
08e0
10e0
30e0
60c0
61c0
e300
fc00
e000
e000
e060
71c0
3f00
ENDCHAR
STARTCHAR ecaron
ENCODING 236
SWIDTH 518 0
DWIDTH 13 0
BBX 12 18 2 0
BITMAP
0830
0460
07c0
0380
0000
07c0
08e0
10e0
30e0
60c0
61c0
e300
fc00
e000
e000
e060
71c0
3f00
ENDCHAR
STARTCHAR iacute
ENCODING 237
SWIDTH 289 0
DWIDTH 7 0
BBX 9 18 3 0
BITMAP
0380
0600
0c00
1800
0000
f800
3800
3000
3000
3000
3000
7000
6000
6000
6000
6000
e000
f800
ENDCHAR
STARTCHAR icircumflex
ENCODING 238
SWIDTH 289 0
DWIDTH 7 0
BBX 9 18 3 0
BITMAP
0e00
1f00
3100
6080
0000
f800
3800
3000
3000
3000
3000
7000
6000
6000
6000
6000
e000
f800
ENDCHAR
STARTCHAR dcaron
ENCODING 239
SWIDTH 800 0
DWIDTH 20 0
BBX 20 20 2 0
BITMAP
000070
000070
003e20
000e20
000c60
000cc0
001c00
03fc00
041c00
081800
101800
303800
603800
607000
e07000
e0f000
e17000
e67000
fc7000
787c00
ENDCHAR
STARTCHAR dstroke
ENCODING 240
SWIDTH 720 0
DWIDTH 18 0
BBX 18 18 2 0
BITMAP
003e00
000e00
007fc0
007fc0
001c00
03fc00
041c00
081800
101800
303800
603800
607000
e07000
e0f000
e17000
e67000
fc7000
787c00
ENDCHAR
STARTCHAR nacute
ENCODING 241
SWIDTH 631 0
DWIDTH 16 0
BBX 13 18 3 0
BITMAP
0070
00c0
0180
0300
0000
f870
39f8
3338
3638
3430
3830
7030
7070
6070
6060
6060
e060
e0f8
ENDCHAR
STARTCHAR ncaron
ENCODING 242
SWIDTH 631 0
DWIDTH 16 0
BBX 13 18 3 0
BITMAP
1060
08c0
0f80
0700
0000
f870
39f8
3338
3638
3430
3830
7030
7070
6070
6060
6060
e060
e0f8
ENDCHAR
STARTCHAR oacute
ENCODING 243
SWIDTH 560 0
DWIDTH 14 0
BBX 13 18 2 0
BITMAP
0038
0060
00c0
0180
0000
07c0
0c60
1870
3030
7030
6030
e070
e070
e060
e0e0
e0c0
f380
7e00
ENDCHAR
STARTCHAR ocircumflex
ENCODING 244
SWIDTH 560 0
DWIDTH 14 0
BBX 13 18 2 0
BITMAP
00e0
01f0
0310
0608
0000
07c0
0c60
1870
3030
7030
6030
e070
e070
e060
e0e0
e0c0
f380
7e00
ENDCHAR
STARTCHAR odoubleacute
ENCODING 245
SWIDTH 560 0
DWIDTH 14 0
BBX 14 18 2 0
BITMAP
006c
00d0
0120
0240
0000
07c0
0c60
1870
3030
7030
6030
e070
e070
e060
e0e0
e0c0
f380
7e00
ENDCHAR
STARTCHAR odiaeresis
ENCODING 246
SWIDTH 560 0
DWIDTH 14 0
BBX 12 16 2 0
BITMAP
0630
0630
0000
07c0
0c60
1870
3030
7030
6030
e070
e070
e060
e0e0
e0c0
f380
7e00
ENDCHAR
STARTCHAR division
ENCODING 247
SWIDTH 608 0
DWIDTH 15 0
BBX 15 13 2 0
BITMAP
00c0
01c0
0000
0000
0000
0000
fffe
0000
0000
0000
0000
0700
0700
ENDCHAR
STARTCHAR rcaron
ENCODING 248
SWIDTH 470 0
DWIDTH 12 0
BBX 11 18 3 0
BITMAP
20c0
1180
1f00
0e00
0000
f860
39e0
33c0
3600
3c00
3800
7000
7000
6000
6000
6000
e000
e000
ENDCHAR
STARTCHAR uring
ENCODING 249
SWIDTH 630 0
DWIDTH 16 0
BBX 13 18 3 0
BITMAP
0300
0480
0480
0300
0000
f8f8
3038
3030
3030
7030
7070
6070
60e0
6160
e360
e660
fce0
70f8
ENDCHAR
STARTCHAR uacute
ENCODING 250
SWIDTH 630 0
DWIDTH 16 0
BBX 13 18 3 0
BITMAP
0038
0060
00c0
0180
0000
f8f8
3038
3030
3030
7030
7070
6070
60e0
6160
e360
e660
fce0
70f8
ENDCHAR
STARTCHAR udoubleacute
ENCODING 251
SWIDTH 630 0
DWIDTH 16 0
BBX 13 18 3 0
BITMAP
00d8
01a0
0240
0480
0000
f8f8
3038
3030
3030
7030
7070
6070
60e0
6160
e360
e660
fce0
70f8
ENDCHAR
STARTCHAR udiaeresis
ENCODING 252
SWIDTH 630 0
DWIDTH 16 0
BBX 13 16 3 0
BITMAP
0318
0318
0000
f8f8
3038
3030
3030
7030
7070
6070
60e0
6160
e360
e660
fce0
70f8
ENDCHAR
STARTCHAR yacute
ENCODING 253
SWIDTH 558 0
DWIDTH 14 0
BBX 16 23 0 -5
BITMAP
000e
0018
0030
0060
0000
7c0f
1c07
0e06
0606
060c
0608
0710
0730
0320
0340
0380
0300
0200
0600
0c00
1800
3000
f000
ENDCHAR
STARTCHAR tcedilla
ENCODING 254
SWIDTH 355 0
DWIDTH 9 0
BBX 8 22 3 -5
BITMAP
08
18
38
38
ff
30
30
70
70
60
60
60
e0
e0
e0
e0
78
08
18
0c
0c
38
ENDCHAR
STARTCHAR abovedot
ENCODING 255
SWIDTH 560 0
DWIDTH 14 0
BBX 3 2 9 16
BITMAP
e0
e0
ENDCHAR
ENDFONT
